<?xml version="1.0" encoding="UTF-8"?>
<svg version="1.1" xmlns="http://www.w3.org/2000/svg" width="1024" height="1024">
<path d="M0 0 C0.66 0 1.32 0 2 0 C2 0.66 2 1.32 2 2 C30.71 2 59.42 2 89 2 C89.33 1.34 89.66 0.68 90 0 C90 0.66 90 1.32 90 2 C127.62 2 165.24 2 204 2 C204 1.34 204 0.68 204 0 C205.98 0 207.96 0 210 0 C210 0.33 210 0.66 210 1 C216.49616668 1.02532428 222.99232066 1.04285601 229.48852539 1.05493164 C231.69914221 1.059965 233.90975569 1.06679217 236.12036133 1.07543945 C239.295093 1.08754859 242.46978072 1.09323825 245.64453125 1.09765625 C246.63524124 1.10281754 247.62595123 1.10797882 248.64668274 1.11329651 C249.56741074 1.11337204 250.48813873 1.11344757 251.43676758 1.11352539 C252.2472908 1.115746 253.05781403 1.11796661 253.89289856 1.12025452 C256.19248592 1.08120448 256.19248592 1.08120448 259 0 C259 0.66 259 1.32 259 2 C261.12534659 1.85930804 263.25027529 1.71229079 265.375 1.5625 C267.15003906 1.44068359 267.15003906 1.44068359 268.9609375 1.31640625 C271.91518901 1.18915064 271.91518901 1.18915064 274 0 C274.33 0.33 274.66 0.66 275 1 C276.485 0.505 276.485 0.505 278 0 C278 0.66 278 1.32 278 2 C285.5278099 1.89255883 293.05552707 1.77993773 300.58315849 1.66066074 C304.07835597 1.60544228 307.57356184 1.55202404 311.06884766 1.50268555 C315.08505496 1.44591564 319.10110445 1.38137781 323.1171875 1.31640625 C324.37554413 1.29969376 325.63390076 1.28298126 326.9303894 1.26576233 C328.09144196 1.24581711 329.25249451 1.22587189 330.44873047 1.20532227 C331.98761429 1.18200584 331.98761429 1.18200584 333.55758667 1.15821838 C336.00704188 1.1583369 336.00704188 1.1583369 338 0 C338 0.66 338 1.32 338 2 C342.1004898 1.36211743 342.1004898 1.36211743 346.125 0.375 C348.36886589 -0.07377318 349.81483917 0.41729045 352 1 C352.66 0.67 353.32 0.34 354 0 C354 0.66 354 1.32 354 2 C355.02589233 1.88736816 355.02589233 1.88736816 356.07250977 1.77246094 C366.06843777 0.83027745 375.98298815 0.95993567 386.01049805 1.18701172 C388.92815605 1.24979892 391.84563293 1.29131557 394.76367188 1.33203125 C418.59776273 1.77527478 440.61674503 7.37913971 459.6953125 22.3984375 C461.84840969 24.11229717 461.84840969 24.11229717 464.1796875 24.4765625 C466 25 466 25 467.02734375 26.84765625 C467.34832031 27.55792969 467.66929687 28.26820313 468 29 C469.14743222 30.18595513 470.34023826 31.32882218 471.5625 32.4375 C476.17555474 36.89875404 479.58206353 41.92799553 483.1171875 47.2421875 C484.87226602 49.99579088 484.87226602 49.99579088 487 52 C487.33 52.99 487.66 53.98 488 55 C488.78082304 56.71331674 489.57398782 58.42102864 490.375 60.125 C492.37298043 64.45491725 493.99660168 68.74288431 495.32421875 73.3203125 C495.86920366 75.2107957 495.86920366 75.2107957 498 76 C498.05137115 130.40221503 498.09913092 184.80443235 498.12702942 239.20666504 C498.12744359 240.01223574 498.12785776 240.81780644 498.12828448 241.64778837 C498.13726386 259.15632381 498.14557431 276.66485952 498.15319599 294.1733956 C498.1569379 302.75996562 498.16082757 311.34653556 498.16479492 319.93310547 C498.1651872 320.78755819 498.16557948 321.64201091 498.16598364 322.52235613 C498.17876056 350.20206631 498.20128916 377.88175807 498.22889166 405.5614571 C498.25721257 434.01335207 498.2756617 462.46523686 498.28174497 490.91714568 C498.2826094 494.93865521 498.2835863 498.96016471 498.28463173 502.98167419 C498.284834 503.77314065 498.28503627 504.56460711 498.28524467 505.3800574 C498.28878551 518.1044682 498.30268806 530.82884745 498.3204961 543.5532454 C498.33819053 556.3552595 498.34489576 569.15724243 498.34050413 581.95926833 C498.33842766 588.89174641 498.34111905 595.82414024 498.35761642 602.75660133 C498.3722591 609.10937261 498.37292391 615.46198976 498.36269668 621.81476825 C498.36143341 624.10710008 498.36520167 626.39944169 498.37464955 628.6917544 C498.45869041 650.35027458 496.21458628 670.84611606 484.50317383 689.60986328 C483.61700726 691.04248167 482.80129512 692.51823998 482 694 C482.33 694.66 482.66 695.32 483 696 C482.01 696 481.02 696 480 696 C478.13073656 697.95432453 478.13073656 697.95432453 476.3125 700.5 C472.53417136 705.41043814 468.44903501 709.70372156 464 714 C463.06109691 714.97782135 462.12338129 715.95678607 461.1875 716.9375 C459 719 459 719 456 720 C454.09332752 721.21228493 452.19935295 722.44459185 450.3125 723.6875 C442.99141337 728.32370124 435.3043995 731.51802863 427 734 C425.79647379 734.38222684 425.79647379 734.38222684 424.56863391 734.77217543 C413.28075055 737.88142241 401.90886235 737.41715005 390.290802 737.38095093 C387.87313751 737.38441045 385.4554746 737.38917699 383.03781497 737.39513266 C377.79525233 737.40502659 372.55277402 737.40566563 367.31021118 737.39799118 C359.51403262 737.38660978 351.71793189 737.39246256 343.9217538 737.4016161 C329.99453107 737.41739021 316.0673497 737.41605327 302.14012307 737.40737936 C289.95075018 737.39982533 277.76139242 737.39786602 265.57201767 737.4014473 C264.76268894 737.40167645 263.95336022 737.40190561 263.11950638 737.40214171 C259.83395094 737.40307576 256.54839551 737.40403097 253.26284009 737.405021 C222.45510332 737.41419352 191.64739285 737.40588503 160.83966014 737.38973031 C133.48765647 737.3754967 106.13569471 737.37676563 78.78369141 737.39111328 C48.03442933 737.40718917 17.28519049 737.41354025 -13.46407521 737.40427649 C-16.74417885 737.40331438 -20.02428249 737.40237586 -23.30438614 737.4014473 C-24.11199647 737.40121006 -24.9196068 737.40097283 -25.75169017 737.40072841 C-37.92999542 737.39732068 -50.10828384 737.40129814 -62.28658676 737.40888596 C-76.13995858 737.41747455 -89.99328267 737.41529633 -103.84664856 737.39904372 C-111.59318245 737.39025455 -119.3396129 737.38963122 -127.08614403 737.40098225 C-132.8788104 737.40853172 -138.67137057 737.40030476 -144.46402039 737.38605852 C-146.80102829 737.3827176 -149.1380501 737.3843892 -151.475049 737.39168589 C-163.73712184 737.42702315 -175.08023099 737.01555154 -187 734 C-188.6647335 733.65714249 -190.3307575 733.32018492 -192 733 C-192 732.34 -192 731.68 -192 731 C-193.43554025 730.49440092 -194.8735202 729.9957251 -196.3125 729.5 C-197.11300781 729.2215625 -197.91351563 728.943125 -198.73828125 728.65625 C-201.08769422 727.86066893 -201.08769422 727.86066893 -204 728 C-204.99 727.67 -205.98 727.34 -207 727 C-206.67 726.34 -206.34 725.68 -206 725 C-206.99966797 724.41605469 -206.99966797 724.41605469 -208.01953125 723.8203125 C-217.65056371 717.97434315 -226.08215191 710.92625561 -233 702 C-233.66 701.34 -234.32 700.68 -235 700 C-237 698 -237 698 -238 695 C-238.90090788 693.43320369 -239.80453227 691.8678102 -240.73046875 690.31567383 C-250 674.76118287 -250 674.76118287 -250 667 C-250.99 667 -251.98 667 -253 667 C-254 664 -254 664 -253.5 662.0625 C-252.90831234 659.62178841 -253.39032699 658.41215968 -254 656 C-254.08699669 654.60437866 -254.12593269 653.20524722 -254.12649983 651.80691713 C-254.12925958 650.97161491 -254.13201932 650.13631269 -254.13486269 649.27569827 C-254.13280737 648.36135655 -254.13075205 647.44701483 -254.12863445 646.50496578 C-254.13038749 645.52705758 -254.13214053 644.54914937 -254.13394669 643.54160759 C-254.13862762 640.2390638 -254.13613582 636.93656363 -254.13371277 633.63401794 C-254.13557968 631.25269362 -254.1378799 628.87136961 -254.14057809 626.49004608 C-254.14543286 621.29934184 -254.14714837 616.10864615 -254.14612198 610.91794014 C-254.14459944 603.19935554 -254.14875345 595.4807813 -254.1539966 587.76219872 C-254.16367717 573.17697689 -254.16648109 558.59175857 -254.16705366 544.00653391 C-254.16751279 532.74711822 -254.16956897 521.4877039 -254.17275429 510.22828865 C-254.17365179 506.99007307 -254.17454161 503.75185748 -254.17542917 500.51364189 C-254.17576074 499.30619042 -254.17576074 499.30619042 -254.17609901 498.07434599 C-254.18225465 475.42707642 -254.18619942 452.77980733 -254.18575573 430.13253689 C-254.18574015 429.27836624 -254.18572457 428.42419559 -254.18570852 427.54414098 C-254.18562541 423.21459924 -254.18552637 418.8850575 -254.18542381 414.55551576 C-254.18540387 413.69561252 -254.18538392 412.83570929 -254.18536337 411.94974838 C-254.18532294 410.2108152 -254.18528114 408.47188203 -254.18523798 406.73294886 C-254.18462492 379.66448984 -254.19213684 352.59604333 -254.20581055 325.52758789 C-254.22115672 295.13559032 -254.22977769 264.74360097 -254.22884732 234.35159928 C-254.22877269 231.11369805 -254.22872399 227.87579682 -254.22869301 224.63789558 C-254.22868135 223.84060603 -254.2286697 223.04331647 -254.22865769 222.22186662 C-254.22862687 209.36866105 -254.23502373 196.51546631 -254.24362527 183.66226397 C-254.25208421 170.75566502 -254.25310553 157.84908199 -254.24651595 144.94248181 C-254.24280877 137.2668073 -254.24468733 129.59118103 -254.25445829 121.91551159 C-254.26112577 116.19654763 -254.25743692 110.47762892 -254.24958507 104.75866819 C-254.24803614 102.43573463 -254.24991789 100.11279591 -254.25544515 97.78986841 C-254.26242661 94.64955525 -254.25727407 91.50949707 -254.24888897 88.36919308 C-254.25385715 87.45251019 -254.25882533 86.5358273 -254.26394406 85.59136614 C-254.25919325 84.75856744 -254.25444244 83.92576873 -254.24954766 83.06773371 C-254.24963588 82.34909004 -254.2497241 81.63044638 -254.249815 80.89002564 C-254 79 -254 79 -252 76 C-251.28486189 73.9328039 -250.62407058 71.84648709 -250 69.75 C-249.65453125 68.59628906 -249.3090625 67.44257813 -248.953125 66.25390625 C-247.95311389 62.83993391 -246.95622995 59.42649064 -246 56 C-245.34 56 -244.68 56 -244 56 C-243.73960937 55.28714844 -243.47921875 54.57429688 -243.2109375 53.83984375 C-241.93408134 50.84541011 -240.39741981 48.29078813 -238.625 45.5625 C-238.00753906 44.60601562 -237.39007813 43.64953125 -236.75390625 42.6640625 C-235.37717458 40.57290215 -233.98032729 38.50071821 -232.5625 36.4375 C-230.8201113 34.20192507 -230.8201113 34.20192507 -231 32 C-230.25621094 31.74347656 -229.51242188 31.48695313 -228.74609375 31.22265625 C-225.87279946 29.94336591 -224.29446463 28.62526731 -222.0625 26.4375 C-218.14144449 22.82774451 -214.03423699 19.86908295 -209.5625 17 C-208.94705322 16.60224365 -208.33160645 16.2044873 -207.69750977 15.79467773 C-203.26484892 13 -203.26484892 13 -201 13 C-201 12.01 -201 11.02 -201 10 C-199.68 10 -198.36 10 -197 10 C-197.495 9.01 -197.495 9.01 -198 8 C-197.12472656 8.03867188 -196.24945313 8.07734375 -195.34765625 8.1171875 C-191.02735689 7.96595182 -187.68632152 6.60327207 -183.68359375 5.0703125 C-172.69479926 1.877386 -161.53693913 1.69602626 -150.1940918 1.68115234 C-148.54687011 1.67183221 -146.89965307 1.66166052 -145.25244141 1.65071106 C-140.82154412 1.62363173 -136.39067821 1.60832786 -131.95972037 1.59528303 C-127.31391574 1.57955491 -122.66817432 1.55279604 -118.02241516 1.5272522 C-109.24325377 1.48063464 -100.46408026 1.44380863 -91.6848591 1.41057932 C-81.68229027 1.37223699 -71.67978521 1.32285892 -61.67727029 1.27259517 C-41.11822739 1.16952878 -20.55914405 1.08018685 0 1 C0 0.67 0 0.34 0 0 Z M496 77 C496 78.65 496 80.3 496 82 C496.33 82 496.66 82 497 82 C497 80.35 497 78.7 497 77 C496.67 77 496.34 77 496 77 Z M-252 663 C-251 666 -251 666 -251 666 Z " fill="#2C2C2C" transform="translate(390,144)"/>
<path d="M0 0 C1.02565038 -0.00307895 1.02565038 -0.00307895 2.07202098 -0.0062201 C4.38002843 -0.0119075 6.68797654 -0.01043072 8.9959898 -0.00901413 C10.66072286 -0.01159677 12.3254553 -0.01460964 13.99018687 -0.01801753 C18.57806406 -0.02610265 23.16592562 -0.02787794 27.75380909 -0.028615 C32.69666187 -0.03046292 37.63950648 -0.0380089 42.58235455 -0.04475021 C53.39628336 -0.05834453 64.21020847 -0.06435989 75.02414441 -0.06876087 C81.77300708 -0.07152129 88.52186832 -0.07575826 95.27073002 -0.08026505 C113.94678469 -0.09245887 132.62283822 -0.10275814 151.29889679 -0.10614014 C152.494697 -0.1063597 153.69049721 -0.10657927 154.92253379 -0.10680549 C156.12123572 -0.10702377 157.31993765 -0.10724204 158.55496389 -0.10746694 C160.98409228 -0.10791041 163.41322066 -0.10835697 165.84234905 -0.10880661 C167.04728705 -0.10902804 168.25222505 -0.10924947 169.49367633 -0.10947761 C189.02482586 -0.11342694 208.55593812 -0.13088457 228.08707324 -0.15416613 C248.12683859 -0.17786172 268.16658522 -0.19034116 288.20636481 -0.19150805 C299.46305094 -0.1924258 310.7196885 -0.19820305 321.97636127 -0.21632767 C331.56036726 -0.23170443 341.14430967 -0.23686346 350.72832564 -0.22858956 C355.6201564 -0.22467453 360.51185902 -0.22565421 365.40367413 -0.23964691 C369.8801166 -0.25233464 374.35633397 -0.25123365 378.83277591 -0.2390562 C380.45391495 -0.23709028 382.07506966 -0.24021869 383.69618664 -0.24890056 C385.89735703 -0.25994441 388.09772612 -0.25253995 390.2988739 -0.24050903 C391.52222547 -0.24110612 392.74557704 -0.24170321 394.00599986 -0.24231839 C398.75611613 0.29046426 402.03027246 2.04624346 405.67779827 5.07258987 C408.29988405 9.90307255 407.92854693 14.66181707 407.90460491 20.07283401 C407.91080349 21.23266296 407.91700207 22.39249191 407.92338848 23.58746719 C407.93048386 26.03595007 407.92731766 28.48448123 407.91461468 30.93294144 C407.90073448 34.68424728 407.93484589 38.43306636 407.97296429 42.18416214 C407.97391533 44.56372004 407.97205747 46.94328108 407.96710491 49.32283401 C407.98036312 50.4458139 407.99362133 51.56879379 408.0072813 52.72580338 C407.9147118 60.44165174 407.9147118 60.44165174 405.11627483 63.78987503 C402.41920906 65.09230727 400.20378059 65.89150478 397.26007366 66.40486526 C396.27676067 66.58654251 395.29344769 66.76821976 394.28033733 66.95540237 C392.70022869 67.22815994 392.70022869 67.22815994 391.08819866 67.50642776 C388.82835465 67.9283204 386.56925535 68.35421846 384.31085491 68.78377151 C383.15472698 69.00275101 381.99859905 69.2217305 380.80743694 69.44734573 C325.83788132 80.28652201 261.98009387 102.63657091 228.65289593 150.84602737 C214.14132769 172.89801178 207.62865115 198.13422348 212.85772991 224.29256058 C219.97207375 255.88213597 243.78592092 280.24651995 270.33819866 297.13142776 C277.97079505 301.67598897 285.80224569 305.61407937 294.08819866 308.81892776 C299.04439396 310.78372947 301.49358051 312.61927484 304.33819866 317.13142776 C305.58795232 320.88068874 305.51989763 324.39987708 305.54132366 328.30720901 C305.54702374 329.10998779 305.55272381 329.91276657 305.55859661 330.73987198 C305.56803905 332.43865519 305.57457759 334.13745667 305.57843304 335.83626175 C305.5881237 338.42391152 305.61914724 341.01076173 305.65069866 343.59822464 C305.65723068 345.25121473 305.66248037 346.90421049 305.66632366 348.55720901 C305.67867046 349.32615997 305.69101727 350.09511093 305.70373821 350.88736343 C305.68400647 355.69114963 305.03592043 358.99535264 302.33819866 363.13142776 C299.0101427 366.3203507 296.50195558 366.52159985 291.96832561 366.56721878 C290.67630733 366.58635834 289.38428905 366.60549789 288.05311871 366.62521744 C286.64424254 366.62980547 285.23536185 366.63314628 283.82647991 366.63533401 C282.37401824 366.64498186 280.92155945 366.65507484 279.46910381 366.66559219 C276.42352839 366.68354723 273.37820803 366.68911433 270.33258343 366.68733597 C266.4497479 366.68703208 262.56857042 366.72788788 258.68612671 366.7796526 C255.68412721 366.81319753 252.68251985 366.81908795 249.68035221 366.81750679 C248.25032332 366.82102331 246.82028169 366.83415964 245.39043903 366.85750389 C236.25442667 366.99263342 230.31704849 366.22838032 223.33819866 360.13142776 C222.5119096 359.52556839 221.68562054 358.91970901 220.83429241 358.29549026 C220.15495647 357.78759964 219.47562054 357.27970901 218.77569866 356.75642776 C202.19140651 345.17293756 182.02577714 338.19401859 162.33819866 334.13142776 C161.66998089 333.98189651 161.00176311 333.83236526 160.31329632 333.67830276 C137.00449825 328.60189708 108.53829449 328.45022811 85.33819866 334.13142776 C84.60907269 334.29771683 83.87994671 334.46400589 83.12872601 334.63533401 C62.16222207 339.4872355 42.73241981 349.06879862 25.76397991 362.24861526 C21.43958096 365.60507307 19.30381174 366.38878949 13.85064983 366.43782425 C13.19660671 366.44614777 12.54256359 366.45447128 11.86870098 366.46304703 C9.70612921 366.48714456 7.54385922 366.49591939 5.38116741 366.50252151 C3.87525118 366.51148937 2.36933585 366.52061124 0.86342144 366.52988052 C-2.29482913 366.54637329 -5.45297367 366.5540709 -8.61126423 366.55696487 C-12.64998881 366.56234348 -16.68771067 366.599999 -20.72615242 366.64570904 C-23.83779718 366.67551831 -26.94920187 366.68268928 -30.06097698 366.68369102 C-31.54929596 366.68788715 -33.03761605 366.70029724 -34.52579403 366.72120857 C-47.61806457 366.89050274 -47.61806457 366.89050274 -51.55901814 363.84651566 C-55.1853064 359.1642967 -54.83111977 355.07152614 -54.86492634 349.29549026 C-54.87062641 348.53851852 -54.87632648 347.78154678 -54.88219929 347.00163651 C-54.89162647 345.4029873 -54.89817419 343.80431886 -54.90203571 342.20564651 C-54.91174042 339.77170499 -54.94278382 337.33860881 -54.97430134 334.90486526 C-54.98083235 333.34757858 -54.98608244 331.7902859 -54.98992634 330.23299026 C-55.00227314 329.51092392 -55.01461994 328.78885757 -55.02734089 328.04491043 C-55.00208282 322.25988119 -53.6550179 318.19719436 -49.62273884 314.01814651 C-45.41521098 311.33709644 -40.93669568 309.71369903 -36.28680134 307.94392776 C-20.91986772 301.85109992 -8.29666945 293.71824993 4.33819866 283.13142776 C5.25601116 282.36830276 6.17382366 281.60517776 7.11944866 280.81892776 C13.28394083 275.49158885 18.40821013 269.60663658 23.33819866 263.13142776 C24.28179241 261.89392776 24.28179241 261.89392776 25.24444866 260.63142776 C38.10646561 243.03077299 43.13299378 223.01292955 40.71319866 201.38142776 C37.93193405 183.93184981 28.79924645 168.8948109 15.47101116 157.38924026 C8.58053426 152.42328559 0.75269622 148.3304271 -7.45867634 146.10017776 C-10.68886096 145.12324388 -11.70955599 144.75979903 -13.66180134 142.13142776 C-14.04211807 139.65228844 -14.04211807 139.65228844 -14.04948139 136.64122391 C-14.05938602 135.50000076 -14.06929066 134.35877762 -14.07949543 133.18297195 C-14.07499378 131.92991257 -14.07049213 130.67685318 -14.06585407 129.3858223 C-14.07271732 128.06693008 -14.07958057 126.74803787 -14.0866518 125.38917923 C-14.10462045 121.76923167 -14.10340769 118.14952601 -14.09770942 114.52954721 C-14.09462217 111.50769102 -14.10070499 108.4858816 -14.10674816 105.46403205 C-14.12080461 98.33408154 -14.11922351 91.2042508 -14.10784626 84.07429886 C-14.09637001 76.71982005 -14.1104296 69.36570612 -14.13724273 62.01127541 C-14.15940155 55.69693786 -14.16603655 49.38271481 -14.16016632 43.06834114 C-14.15679519 39.29714786 -14.15922161 35.52618835 -14.17641735 31.75502777 C-14.19188702 28.20739219 -14.18793144 24.66029659 -14.16911221 21.11268234 C-14.16366978 19.19209327 -14.17794126 17.27147996 -14.1928072 15.3509407 C-14.18297306 14.20407791 -14.17313892 13.05721512 -14.16300678 11.87559891 C-14.1627975 10.88119356 -14.16258821 9.88678822 -14.16237259 8.86224937 C-13.51778047 5.34573485 -12.14064049 3.66466204 -9.66180134 1.13142776 C-6.2361817 -0.01044545 -3.61433049 0.00368418 0 0 Z " fill="#FEFEFE" transform="translate(391.6618013381958,334.8685722351074)"/>
<path d="M0 0 C1.89844162 -0.00788544 1.89844162 -0.00788544 3.8352356 -0.01593018 C7.29367031 -0.02956463 10.75183549 -0.02432281 14.2102747 -0.01479292 C17.83149489 -0.00718275 21.45269245 -0.01424508 25.07391357 -0.01895142 C31.14990373 -0.02440223 37.22578431 -0.01723219 43.30175781 -0.00292969 C50.33082489 0.01342501 57.35963129 0.00808534 64.38869214 -0.0084089 C70.42533518 -0.02200802 76.46189963 -0.02395207 82.49855304 -0.0160929 C86.10356344 -0.01141144 89.70845111 -0.01080497 93.31345367 -0.02070236 C97.3263148 -0.03095134 101.33872341 -0.0167607 105.3515625 0 C106.55054169 -0.00607269 107.74952087 -0.01214539 108.98483276 -0.0184021 C110.07275116 -0.00994263 111.16066956 -0.00148315 112.28155518 0.00723267 C113.23058338 0.00836374 114.17961159 0.00949482 115.15739822 0.01066017 C115.90306423 0.1352429 116.64873024 0.25982563 117.41699219 0.38818359 C119.47524235 3.47555883 119.66950453 4.1338774 119.69114685 7.62557983 C119.70112198 8.48913589 119.71109711 9.35269196 119.72137451 10.24241638 C119.72203918 11.1869014 119.72270386 12.13138641 119.72338867 13.10449219 C119.73171219 14.10151657 119.74003571 15.09854095 119.74861145 16.1257782 C119.77275338 19.42943194 119.78148861 22.73288843 119.78808594 26.03662109 C119.79704884 28.32964132 119.80617062 30.62266094 119.81544495 32.91567993 C119.83194875 37.7258649 119.83963764 42.53598014 119.8425293 47.34619141 C119.84791545 53.51252938 119.88559992 59.67821299 119.93127346 65.84436607 C119.96100242 70.58155719 119.96825195 75.31858993 119.96925545 80.05586624 C119.97346575 82.32929101 119.98593229 84.6027159 120.00677299 86.87604904 C120.03360092 90.05555211 120.0288869 93.23352783 120.01635742 96.41308594 C120.03860886 97.82374077 120.03860886 97.82374077 120.06130981 99.26289368 C120.00992858 103.83704224 119.90063166 105.76455245 117.01531982 109.48503113 C114.20794481 111.54130094 113.36617397 111.9814341 109.99902344 111.47802734 C103.16569835 110.39575797 96.63505892 108.17963199 90.10449219 105.95068359 C89.44703003 105.72887421 88.78956787 105.50706482 88.11218262 105.27853394 C60.58273036 95.94636793 34.14220174 81.71316159 12.87011719 61.68505859 C10.73399427 59.68499446 8.54598622 57.81422197 6.29199219 55.95068359 C1.35105507 51.643716 -2.5742164 46.54916165 -6.58300781 41.38818359 C-7.36160156 40.40205078 -8.14019531 39.41591797 -8.94238281 38.39990234 C-23.45455685 19.62660338 -23.45455685 19.62660338 -22.58300781 10.38818359 C-21.17258697 6.58407708 -19.66039401 4.1251331 -16.27813721 1.81161499 C-10.86107358 -0.27513695 -5.75753041 -0.02935951 0 0 Z " fill="#FEFEFE" transform="translate(239.5830078125,358.61181640625)"/>
<path d="M0 0 C337.92 0 675.84 0 1024 0 C1024 337.92 1024 675.84 1024 1024 C686.08 1024 348.16 1024 0 1024 C0 686.08 0 348.16 0 0 Z M2 1 C0.83488642 4.49534075 0.87534865 7.21613181 0.8758015 10.90645331 C0.87452341 11.61786957 0.87324532 12.32928583 0.8719285 13.06226016 C0.86884226 15.46927699 0.87294275 17.87622939 0.87695217 20.28324413 C0.87621318 22.0252094 0.87503529 23.76717452 0.87345598 25.50913923 C0.87037253 30.33032231 0.87357354 35.15148447 0.87773425 39.972666 C0.88115035 45.19265441 0.87879773 50.41264057 0.87715149 55.63262939 C0.87506763 64.80241106 0.87673117 73.97218626 0.88078487 83.14196718 C0.886871 96.95439565 0.88715609 110.76682017 0.88631957 124.57924974 C0.88507559 147.72314815 0.88836993 170.86704309 0.89442444 194.01094055 C0.9025936 225.30469845 0.90452658 256.59845201 0.90539551 287.89221191 C0.91065215 363.15730852 0.92461318 438.42240431 0.9375 513.6875 C0.958125 681.760625 0.97875 849.83375 1 1023 C338.26 1023 675.52 1023 1023 1023 C1023 686.07 1023 349.14 1023 2 C1020.04489494 0.52244747 1017.41217953 0.8745738 1014.1122036 0.87415886 C1013.39179394 0.87270542 1012.67138428 0.87125198 1011.92914402 0.86975449 C1009.4902074 0.86607526 1007.05133252 0.8695899 1004.61239624 0.87301636 C1002.85568701 0.87186524 1001.09897802 0.87027778 999.34226954 0.86828911 C994.49448311 0.86409326 989.64671622 0.86618777 984.79892969 0.86927533 C979.57676209 0.87152867 974.35459795 0.8680498 969.13243103 0.86529541 C958.88563264 0.86083522 948.63884155 0.86181609 938.39204286 0.86470805 C930.04997239 0.8669648 921.70790397 0.86727341 913.36583328 0.86618423 C912.1791627 0.866031 910.99249212 0.86587777 909.76986182 0.86571989 C907.35890129 0.86540016 904.94794076 0.86507594 902.53698023 0.8647473 C879.88692075 0.86189084 857.23686531 0.8651802 834.58680649 0.87054767 C815.2069575 0.87499859 795.82711451 0.8742543 776.44726562 0.86962891 C753.92574103 0.86425617 731.40421999 0.86218373 708.88269484 0.86524117 C706.47134312 0.86555969 704.0599914 0.86587406 701.64863968 0.86618423 C699.86928154 0.86641565 699.86928154 0.86641565 698.05397677 0.86665174 C689.74987498 0.86751011 681.44577548 0.86606837 673.14167404 0.86370468 C662.97905906 0.86087567 652.81645178 0.86170872 642.65383767 0.86698543 C637.48137456 0.86958379 632.30892422 0.87069479 627.13646126 0.86733627 C621.49000213 0.86393262 615.84356842 0.86556952 610.19711304 0.87301636 C609.30433709 0.87411886 608.41156114 0.87522137 607.49173138 0.87635729 C596.4750252 0.89697414 585.49788968 1.12135515 574.48965454 1.57058716 C559.79868769 2.14778922 545.15925268 1.83342694 530.46501461 1.49335792 C514.2064717 1.11810659 497.95827498 0.89150794 481.69526672 0.87974548 C480.10043794 0.87849026 480.10043794 0.87849026 478.47339039 0.87720968 C471.77773401 0.87364031 465.08209709 0.87785737 458.3864435 0.88393438 C452.22572813 0.88836311 446.06501339 0.88678392 439.90429688 0.8860321 C429.29747078 0.88551452 418.69065024 0.88854366 408.08382607 0.89426994 C396.99233279 0.90024217 385.90084203 0.90404684 374.80934715 0.90512276 C374.11274775 0.9051915 373.41614835 0.90526024 372.69843987 0.90533106 C369.15897409 0.90566952 365.6195083 0.90597085 362.0800425 0.90625793 C337.18446349 0.9083434 312.28888773 0.91503834 287.39331055 0.92456055 C263.24812843 0.9337849 239.10294721 0.94084878 214.95776367 0.94506836 C213.83607807 0.94526565 213.83607807 0.94526565 212.69173215 0.94546692 C205.18027581 0.94678575 197.66881945 0.94806152 190.15736309 0.94930578 C174.86355024 0.95184017 159.56973745 0.95466142 144.27592468 0.95765686 C143.22176951 0.9578628 143.22176951 0.9578628 142.14631826 0.95807289 C95.43087747 0.96723181 48.71543857 0.983093 2 1 Z " fill="#FEFEFE" transform="translate(0,0)"/>
<path d="M0 0 C4.42757981 1.38361869 7.62735215 3.84242262 11.23046875 6.66015625 C14.66624437 9.26163757 17.10151922 9.14927085 21.37744141 9.20532227 C22.03122269 9.21522186 22.68500397 9.22512146 23.3585968 9.23532104 C25.52288167 9.26694711 27.6871885 9.29169772 29.8515625 9.31640625 C31.35086645 9.33697483 32.85016459 9.35797128 34.34945679 9.37937927 C38.29825131 9.43460988 42.24709826 9.48401476 46.19598389 9.53222656 C50.22445346 9.58243439 54.25284678 9.6381242 58.28125 9.69335938 C66.18743556 9.80095303 74.09368485 9.90239529 82 10 C81.34 10.33 80.68 10.66 80 11 C80 11.66 80 12.32 80 13 C58.88 13 37.76 13 16 13 C16 12.34 16 11.68 16 11 C15.45730469 10.91621094 14.91460938 10.83242188 14.35546875 10.74609375 C11.19250969 9.74422778 8.97647796 8.02936223 6.3125 6.0625 C5.33925781 5.35222656 4.36601563 4.64195312 3.36328125 3.91015625 C1 2 1 2 0 0 Z " fill="#353636" transform="translate(609,691)"/>
<path d="M0 0 C2.81143078 3.41343693 5.29713548 6.90665519 7.6875 10.625 C11.75016061 16.7641316 16.20516041 22.41965768 21 28 C21.75539062 28.87914062 22.51078125 29.75828125 23.2890625 30.6640625 C33.04251517 41.75819595 44.64936306 50.93314254 57 59 C56.01 59.33 55.02 59.66 54 60 C52.33691406 59.14233398 52.33691406 59.14233398 50.515625 57.74609375 C49.835 57.22837402 49.154375 56.7106543 48.453125 56.17724609 C47.72609375 55.60312988 46.9990625 55.02901367 46.25 54.4375 C45.4971875 53.85049316 44.744375 53.26348633 43.96875 52.65869141 C32.4601591 43.55174647 21.81886349 33.78158581 13 22 C12.29230469 21.0615625 11.58460938 20.123125 10.85546875 19.15625 C0 4.49431818 0 4.49431818 0 0 Z " fill="#111111" transform="translate(218,378)"/>
<path d="M0 0 C0.66 0.33 1.32 0.66 2 1 C1.37170288 1.60473145 1.37170288 1.60473145 0.73071289 2.22167969 C-1.16656251 4.05651177 -3.05204654 5.90302518 -4.9375 7.75 C-5.59685547 8.38421875 -6.25621094 9.0184375 -6.93554688 9.671875 C-7.56396484 10.290625 -8.19238281 10.909375 -8.83984375 11.546875 C-9.42113037 12.11245117 -10.00241699 12.67802734 -10.60131836 13.26074219 C-12.15513073 15.19290475 -12.48169837 16.60904538 -13 19 C-14.7421875 20.81640625 -14.7421875 20.81640625 -16.875 22.5625 C-19.36338916 24.62391463 -21.75309443 26.67537129 -24 29 C-19.78990932 17.25714904 -8.73555623 8.51471352 0 0 Z " fill="#0F100F" transform="translate(643,460)"/>
<path d="M0 0 C0.66 0.33 1.32 0.66 2 1 C2 4 2 4 0.57421875 5.5 C-0.04839844 5.995 -0.67101562 6.49 -1.3125 7 C-5.09240473 10.04294218 -7.9873807 12.5103108 -10 17 C-10.66 16.67 -11.32 16.34 -12 16 C-12 12.8525787 -11.399734 11.71198463 -10 9 C-10 8.34 -10 7.68 -10 7 C-8.9171875 6.6596875 -8.9171875 6.6596875 -7.8125 6.3125 C-4.46790687 4.75168987 -2.48396041 2.6968713 0 0 Z " fill="#363535" transform="translate(169,169)"/>
<path d="M0 0 C0.33 0.99 0.66 1.98 1 3 C1.66 3 2.32 3 3 3 C3.67668949 5.20528272 4.34093498 7.41438609 5 9.625 C5.37125 10.85476563 5.7425 12.08453125 6.125 13.3515625 C6.93727719 16.73846826 7.17041013 19.53854429 7 23 C5.37723842 20.56585763 4.38255208 18.68680554 3.375 16 C3.11460937 15.319375 2.85421875 14.63875 2.5859375 13.9375 C2 12 2 12 2 9 C1.01 9 0.02 9 -1 9 C-2.25541557 5.23375329 -1.37061958 3.62811066 0 0 Z M0 5 C1 8 1 8 1 8 Z " fill="#3D3C3C" transform="translate(138,802)"/>
<path d="M0 0 C2.97 0.495 2.97 0.495 6 1 C5.67 1.66 5.34 2.32 5 3 C4.01 3 3.02 3 2 3 C2 3.66 2 4.32 2 5 C-0.64738916 6.4606285 -1.89448334 7 -5 7 C-5 6.34 -5 5.68 -5 5 C-4.34 5 -3.68 5 -3 5 C-3 4.01 -3 3.02 -3 2 C-1.68 2 -0.36 2 1 2 C0.67 1.34 0.34 0.68 0 0 Z " fill="#414040" transform="translate(192,152)"/>
<path d="M0 0 C3.625 0.375 3.625 0.375 7 1 C6.67 1.99 6.34 2.98 6 4 C6.99 4.33 7.98 4.66 9 5 C7.54077307 4.88590407 6.08259402 4.75834456 4.625 4.625 C3.40683594 4.52058594 3.40683594 4.52058594 2.1640625 4.4140625 C0 4 0 4 -2 2 C-1.34 1.34 -0.68 0.68 0 0 Z " fill="#3F3E3F" transform="translate(203,874)"/>
<path d="M0 0 C0.99 0.33 1.98 0.66 3 1 C2.71640113 2.4391134 2.42278601 3.87625518 2.125 5.3125 C1.88136719 6.51326172 1.88136719 6.51326172 1.6328125 7.73828125 C1 10 1 10 -1 13 C-2.47742793 9.15868739 -1.3587688 6.7565961 0 3 C0 2.01 0 1.02 0 0 Z " fill="#353534" transform="translate(880,811)"/>
<path d="M0 0 C0.99 0.66 1.98 1.32 3 2 C1.5682384 2.69937202 0.12932968 3.38412718 -1.3125 4.0625 C-2.51326172 4.63677734 -2.51326172 4.63677734 -3.73828125 5.22265625 C-6 6 -6 6 -9 5 C-8.34 5 -7.68 5 -7 5 C-7 4.34 -7 3.68 -7 3 C-3.6875 1.375 -3.6875 1.375 0 0 Z " fill="#414040" transform="translate(827,871)"/>
<path d="M0 0 C2.31 0 4.62 0 7 0 C1.85714286 4.42857143 1.85714286 4.42857143 -2 5 C-1.34 3.35 -0.68 1.7 0 0 Z " fill="#3F3E3E" transform="translate(833,867)"/>
<path d="M0 0 C-1.28965176 1.37562854 -2.62689293 2.70766393 -4 4 C-4.66 4 -5.32 4 -6 4 C-6 3.34 -6 2.68 -6 2 C-6.66 1.67 -7.32 1.34 -8 1 C-3.375 -1.125 -3.375 -1.125 0 0 Z " fill="#403F40" transform="translate(206,151)"/>
<path d="M0 0 C0.598125 0.495 1.19625 0.99 1.8125 1.5 C3.97029994 3.28276418 3.97029994 3.28276418 7 3 C6.34 4.32 5.68 5.64 5 7 C2.5 5.1875 2.5 5.1875 0 3 C0 2.01 0 1.02 0 0 Z " fill="#383737" transform="translate(849,166)"/>
<path d="M0 0 C2.31 0.33 4.62 0.66 7 1 C3.5647952 3.29013653 2.014669 3.17842973 -2 3 C-1.34 2.01 -0.68 1.02 0 0 Z " fill="#3B3A3A" transform="translate(808,148)"/>
<path d="M0 0 C0.33 0 0.66 0 1 0 C1.125 2.875 1.125 2.875 1 6 C0.34 6.66 -0.32 7.32 -1 8 C-1.66 7.34 -2.32 6.68 -3 6 C-2.01 4.02 -1.02 2.04 0 0 Z " fill="#1F1F1F" transform="translate(610,503)"/>
<path d="M0 0 C0.99 0 1.98 0 3 0 C3.33 2.31 3.66 4.62 4 7 C3.01 6.67 2.02 6.34 1 6 C0.67 4.02 0.34 2.04 0 0 Z " fill="#3F3F3E" transform="translate(875,196)"/>
<path d="M0 0 C2.97 0 5.94 0 9 0 C9 0.33 9 0.66 9 1 C6.03 1 3.06 1 0 1 C0 0.67 0 0.34 0 0 Z " fill="#585755" transform="translate(272,144)"/>
<path d="M0 0 C2.64 0 5.28 0 8 0 C8 0.33 8 0.66 8 1 C5.36 1 2.72 1 0 1 C0 0.67 0 0.34 0 0 Z " fill="#595854" transform="translate(304,144)"/>
<path d="M0 0 C2.31 0 4.62 0 7 0 C7 0.33 7 0.66 7 1 C4.69 1 2.38 1 0 1 C0 0.67 0 0.34 0 0 Z " fill="#585655" transform="translate(782,144)"/>
<path d="M0 0 C0.33 0 0.66 0 1 0 C1 1.65 1 3.3 1 5 C0.34 4.01 -0.32 3.02 -1 2 C-0.67 1.34 -0.34 0.68 0 0 Z " fill="#5B5959" transform="translate(879,196)"/>
<path d="M0 0 C1.485 0.99 1.485 0.99 3 2 C2.34 2.66 1.68 3.32 1 4 C0.67 2.68 0.34 1.36 0 0 Z " fill="#5D5C5B" transform="translate(875,192)"/>
<path d="M0 0 C0.66 0 1.32 0 2 0 C1.67 0.99 1.34 1.98 1 3 C0.67 2.01 0.34 1.02 0 0 Z " fill="#5B5B5A" transform="translate(144,829)"/>
<path d="M0 0 C1.65 0 3.3 0 5 0 C5 0.33 5 0.66 5 1 C3.35 1 1.7 1 0 1 C0 0.67 0 0.34 0 0 Z " fill="#575654" transform="translate(751,144)"/>
<path d="M0 0 C1.65 0 3.3 0 5 0 C5 0.33 5 0.66 5 1 C3.35 1 1.7 1 0 1 C0 0.67 0 0.34 0 0 Z " fill="#585755" transform="translate(655,144)"/>
<path d="M0 0 C1 4 1 4 1 4 Z " fill="#5E5D5D" transform="translate(887,801)"/>
<path d="M0 0 C1 4 1 4 1 4 Z " fill="#585757" transform="translate(137,216)"/>
<path d="M0 0 C0.66 0 1.32 0 2 0 C2 0.66 2 1.32 2 2 C1.34 2 0.68 2 0 2 C0 1.34 0 0.68 0 0 Z " fill="#5E5E5E" transform="translate(161,168)"/>
<path d="M0 0 C0.99 0 1.98 0 3 0 C2.67 0.66 2.34 1.32 2 2 C1.34 1.34 0.68 0.68 0 0 Z " fill="#565554" transform="translate(842,160)"/>
<path d="M0 0 C4 1 4 1 4 1 Z " fill="#5A5A59" transform="translate(215,145)"/>
<path d="M0 0 C4 1 4 1 4 1 Z " fill="#5A5955" transform="translate(678,144)"/>
<path d="M0 0 C4 1 4 1 4 1 Z " fill="#585755" transform="translate(368,144)"/>
<path d="M0 0 C4 1 4 1 4 1 Z " fill="#5A5A58" transform="translate(224,144)"/>
<path d="M0 0 C0.33 0.66 0.66 1.32 1 2 C0.34 1.67 -0.32 1.34 -1 1 C-0.67 0.67 -0.34 0.34 0 0 Z " fill="#5E5D5E" transform="translate(169,860)"/>
<path d="M0 0 C0.33 0.66 0.66 1.32 1 2 C0.34 1.67 -0.32 1.34 -1 1 C-0.67 0.67 -0.34 0.34 0 0 Z " fill="#5B595A" transform="translate(161,852)"/>
<path d="" fill="#5E5E5E" transform="translate(0,0)"/>
<path d="M0 0 C0.66 0 1.32 0 2 0 C1.67 0.66 1.34 1.32 1 2 C0.67 1.34 0.34 0.68 0 0 Z " fill="#FEFEFE" transform="translate(1020,718)"/>
<path d="M0 0 C0.99 0.495 0.99 0.495 2 1 C1.01 1.495 1.01 1.495 0 2 C0 1.34 0 0.68 0 0 Z " fill="#585656" transform="translate(152,184)"/>
<path d="M0 0 C0.33 0.66 0.66 1.32 1 2 C0.34 1.67 -0.32 1.34 -1 1 C-0.67 0.67 -0.34 0.34 0 0 Z " fill="#5F5D5D" transform="translate(185,153)"/>
<path d="M0 0 C3 1 3 1 3 1 Z " fill="#5B5A58" transform="translate(813,147)"/>
<path d="M0 0 C3 1 3 1 3 1 Z " fill="#5B5957" transform="translate(709,144)"/>
<path d="M0 0 C3 1 3 1 3 1 Z " fill="#5B5A57" transform="translate(414,144)"/>
<path d="M0 0 C3 1 3 1 3 1 Z " fill="#5A5857" transform="translate(256,144)"/>
<path d="M0 0 C2 1 2 1 2 1 Z " fill="#FFFFFF" transform="translate(935,1021)"/>
<path d="M0 0 C2 1 2 1 2 1 Z " fill="#FEFFFF" transform="translate(559,1021)"/>
<path d="M0 0 C2 1 2 1 2 1 Z " fill="#FEFEFE" transform="translate(271,1021)"/>
<path d="" fill="#5E5C5B" transform="translate(0,0)"/>
<path d="" fill="#5C5D5B" transform="translate(0,0)"/>
<path d="" fill="#5F5D5C" transform="translate(0,0)"/>
<path d="M0 0 C2 1 2 1 2 1 Z " fill="#636161" transform="translate(870,843)"/>
<path d="" fill="#5F5D5E" transform="translate(0,0)"/>
<path d="" fill="#5C5C5B" transform="translate(0,0)"/>
<path d="" fill="#5A5B5A" transform="translate(0,0)"/>
<path d="" fill="#5F5F5E" transform="translate(0,0)"/>
<path d="" fill="#5B585A" transform="translate(0,0)"/>
<path d="" fill="#5F5F5D" transform="translate(0,0)"/>
<path d="" fill="#5C5B59" transform="translate(0,0)"/>
<path d="M0 0 C2 1 2 1 2 1 Z " fill="#FFFFFF" transform="translate(1020,710)"/>
<path d="" fill="#FEFEFF" transform="translate(0,0)"/>
<path d="" fill="#FFFEFF" transform="translate(0,0)"/>
<path d="" fill="#FEFFFE" transform="translate(0,0)"/>
<path d="" fill="#FEFEFF" transform="translate(0,0)"/>
<path d="" fill="#FFFDFF" transform="translate(0,0)"/>
<path d="M0 0 C2 1 2 1 2 1 Z " fill="#FFFEFF" transform="translate(1020,270)"/>
<path d="" fill="#585556" transform="translate(0,0)"/>
<path d="" fill="#5E5D5C" transform="translate(0,0)"/>
<path d="M0 0 C2 1 2 1 2 1 Z " fill="#555555" transform="translate(827,152)"/>
<path d="" fill="#5D5D5D" transform="translate(0,0)"/>
<path d="M0 0 C2 1 2 1 2 1 Z " fill="#5B5A59" transform="translate(809,146)"/>
<path d="M0 0 C2 1 2 1 2 1 Z " fill="#5A5957" transform="translate(806,145)"/>
<path d="M0 0 C2 1 2 1 2 1 Z " fill="#595A5A" transform="translate(798,144)"/>
<path d="M0 0 C2 1 2 1 2 1 Z " fill="#565553" transform="translate(792,144)"/>
<path d="M0 0 C2 1 2 1 2 1 Z " fill="#5A5858" transform="translate(766,144)"/>
<path d="M0 0 C2 1 2 1 2 1 Z " fill="#585855" transform="translate(758,144)"/>
<path d="M0 0 C2 1 2 1 2 1 Z " fill="#595956" transform="translate(702,144)"/>
<path d="M0 0 C2 1 2 1 2 1 Z " fill="#585855" transform="translate(694,144)"/>
<path d="M0 0 C2 1 2 1 2 1 Z " fill="#595855" transform="translate(687,144)"/>
<path d="M0 0 C2 1 2 1 2 1 Z " fill="#595955" transform="translate(675,144)"/>
<path d="M0 0 C2 1 2 1 2 1 Z " fill="#5B5957" transform="translate(670,144)"/>
<path d="M0 0 C2 1 2 1 2 1 Z " fill="#595855" transform="translate(623,144)"/>
<path d="M0 0 C2 1 2 1 2 1 Z " fill="#595955" transform="translate(566,144)"/>
<path d="M0 0 C2 1 2 1 2 1 Z " fill="#595755" transform="translate(550,144)"/>
<path d="M0 0 C2 1 2 1 2 1 Z " fill="#5A5956" transform="translate(535,144)"/>
<path d="M0 0 C2 1 2 1 2 1 Z " fill="#595957" transform="translate(514,144)"/>
<path d="M0 0 C2 1 2 1 2 1 Z " fill="#595755" transform="translate(486,144)"/>
<path d="M0 0 C2 1 2 1 2 1 Z " fill="#5A5857" transform="translate(454,144)"/>
<path d="M0 0 C2 1 2 1 2 1 Z " fill="#585756" transform="translate(442,144)"/>
<path d="M0 0 C2 1 2 1 2 1 Z " fill="#595A58" transform="translate(422,144)"/>
<path d="M0 0 C2 1 2 1 2 1 Z " fill="#5A5956" transform="translate(418,144)"/>
<path d="M0 0 C2 1 2 1 2 1 Z " fill="#585857" transform="translate(358,144)"/>
<path d="M0 0 C2 1 2 1 2 1 Z " fill="#5B5B57" transform="translate(343,144)"/>
<path d="M0 0 C2 1 2 1 2 1 Z " fill="#5A5957" transform="translate(294,144)"/>
<path d="M0 0 C2 1 2 1 2 1 Z " fill="#5A5956" transform="translate(282,144)"/>
<path d="M0 0 C2 1 2 1 2 1 Z " fill="#FFFFFF" transform="translate(548,6)"/>
<path d="M0 0 C2 1 2 1 2 1 Z " fill="#FFFFFF" transform="translate(206,3)"/>
<path d="" fill="#FFFFFF" transform="translate(0,0)"/>
<path d="" fill="#FEFFFF" transform="translate(0,0)"/>
<path d="" fill="#FEFEFF" transform="translate(0,0)"/>
<path d="" fill="#FFFFFF" transform="translate(0,0)"/>
<path d="" fill="#FEFEFE" transform="translate(0,0)"/>
<path d="" fill="#FFFFFF" transform="translate(0,0)"/>
<path d="" fill="#FFFFFF" transform="translate(0,0)"/>
<path d="" fill="#FFFFFD" transform="translate(0,0)"/>
<path d="" fill="#FFFFFF" transform="translate(0,0)"/>
<path d="" fill="#FDFFFF" transform="translate(0,0)"/>
<path d="" fill="#FEFFFF" transform="translate(0,0)"/>
<path d="" fill="#FFFFFF" transform="translate(0,0)"/>
<path d="" fill="#FFFFFF" transform="translate(0,0)"/>
<path d="" fill="#FEFFFF" transform="translate(0,0)"/>
<path d="" fill="#FEFEFD" transform="translate(0,0)"/>
<path d="" fill="#FFFFFF" transform="translate(0,0)"/>
<path d="" fill="#FFFFFF" transform="translate(0,0)"/>
<path d="" fill="#FFFFFF" transform="translate(0,0)"/>
<path d="" fill="#FEFFFF" transform="translate(0,0)"/>
<path d="" fill="#FEFFFF" transform="translate(0,0)"/>
<path d="" fill="#FFFFFF" transform="translate(0,0)"/>
<path d="" fill="#FFFFFF" transform="translate(0,0)"/>
<path d="" fill="#FEFEFF" transform="translate(0,0)"/>
<path d="" fill="#FEFFFF" transform="translate(0,0)"/>
<path d="" fill="#FFFFFF" transform="translate(0,0)"/>
<path d="" fill="#FFFFFF" transform="translate(0,0)"/>
<path d="" fill="#FFFFFF" transform="translate(0,0)"/>
<path d="" fill="#FEFFFF" transform="translate(0,0)"/>
<path d="" fill="#FFFFFF" transform="translate(0,0)"/>
<path d="" fill="#FEFEFF" transform="translate(0,0)"/>
<path d="" fill="#FFFEFF" transform="translate(0,0)"/>
<path d="" fill="#FEFFFF" transform="translate(0,0)"/>
<path d="" fill="#FEFFFF" transform="translate(0,0)"/>
<path d="" fill="#FEFFFF" transform="translate(0,0)"/>
<path d="" fill="#FEFEFF" transform="translate(0,0)"/>
<path d="" fill="#FFFFFF" transform="translate(0,0)"/>
<path d="" fill="#FEFFFF" transform="translate(0,0)"/>
<path d="" fill="#FEFEFF" transform="translate(0,0)"/>
<path d="" fill="#FEFFFE" transform="translate(0,0)"/>
<path d="" fill="#FFFEFF" transform="translate(0,0)"/>
<path d="" fill="#FFFFFF" transform="translate(0,0)"/>
<path d="" fill="#FFFFFF" transform="translate(0,0)"/>
<path d="" fill="#FFFEFF" transform="translate(0,0)"/>
<path d="" fill="#FFFFFE" transform="translate(0,0)"/>
<path d="" fill="#FFFFFF" transform="translate(0,0)"/>
<path d="" fill="#FFFFFF" transform="translate(0,0)"/>
<path d="" fill="#FEFFFF" transform="translate(0,0)"/>
<path d="" fill="#FFFFFE" transform="translate(0,0)"/>
<path d="" fill="#FFFFFF" transform="translate(0,0)"/>
<path d="" fill="#FFFFFF" transform="translate(0,0)"/>
<path d="" fill="#FFFFFF" transform="translate(0,0)"/>
<path d="" fill="#FFFFFF" transform="translate(0,0)"/>
<path d="" fill="#FFFEFF" transform="translate(0,0)"/>
<path d="" fill="#FFFFFF" transform="translate(0,0)"/>
<path d="" fill="#FEFEFE" transform="translate(0,0)"/>
<path d="" fill="#FDFEFE" transform="translate(0,0)"/>
<path d="" fill="#FFFFFF" transform="translate(0,0)"/>
<path d="" fill="#FFFFFF" transform="translate(0,0)"/>
<path d="" fill="#FFFFFF" transform="translate(0,0)"/>
<path d="" fill="#FFFFFE" transform="translate(0,0)"/>
<path d="" fill="#FFFFFF" transform="translate(0,0)"/>
<path d="" fill="#FFFFFF" transform="translate(0,0)"/>
<path d="" fill="#FFFFFF" transform="translate(0,0)"/>
<path d="" fill="#FFFFFF" transform="translate(0,0)"/>
<path d="" fill="#656363" transform="translate(0,0)"/>
<path d="" fill="#646463" transform="translate(0,0)"/>
<path d="" fill="#636361" transform="translate(0,0)"/>
<path d="" fill="#656464" transform="translate(0,0)"/>
<path d="" fill="#656464" transform="translate(0,0)"/>
<path d="" fill="#616060" transform="translate(0,0)"/>
<path d="" fill="#5F5E5C" transform="translate(0,0)"/>
<path d="" fill="#626060" transform="translate(0,0)"/>
<path d="" fill="#605F5F" transform="translate(0,0)"/>
<path d="" fill="#5C5959" transform="translate(0,0)"/>
<path d="" fill="#5F5E5C" transform="translate(0,0)"/>
<path d="" fill="#62605E" transform="translate(0,0)"/>
<path d="" fill="#646162" transform="translate(0,0)"/>
<path d="" fill="#5C5C5B" transform="translate(0,0)"/>
<path d="" fill="#605E5D" transform="translate(0,0)"/>
<path d="" fill="#5E5E5A" transform="translate(0,0)"/>
<path d="" fill="#5C5C5A" transform="translate(0,0)"/>
<path d="" fill="#636060" transform="translate(0,0)"/>
<path d="" fill="#FFFFFF" transform="translate(0,0)"/>
<path d="" fill="#646564" transform="translate(0,0)"/>
<path d="" fill="#585757" transform="translate(0,0)"/>
<path d="" fill="#5F5F5E" transform="translate(0,0)"/>
<path d="" fill="#FFFFFF" transform="translate(0,0)"/>
<path d="" fill="#5E5D5B" transform="translate(0,0)"/>
<path d="" fill="#5F5F5F" transform="translate(0,0)"/>
<path d="" fill="#5C5B5C" transform="translate(0,0)"/>
<path d="" fill="#626261" transform="translate(0,0)"/>
<path d="" fill="#5F5F5D" transform="translate(0,0)"/>
<path d="" fill="#5F5D5E" transform="translate(0,0)"/>
<path d="" fill="#666664" transform="translate(0,0)"/>
<path d="" fill="#5D5D5B" transform="translate(0,0)"/>
<path d="" fill="#5D5B5C" transform="translate(0,0)"/>
<path d="" fill="#595856" transform="translate(0,0)"/>
<path d="" fill="#615F5C" transform="translate(0,0)"/>
<path d="" fill="#595654" transform="translate(0,0)"/>
<path d="" fill="#616060" transform="translate(0,0)"/>
<path d="" fill="#585857" transform="translate(0,0)"/>
<path d="" fill="#5D5B5D" transform="translate(0,0)"/>
<path d="" fill="#5C5A59" transform="translate(0,0)"/>
<path d="" fill="#595858" transform="translate(0,0)"/>
<path d="" fill="#5B5D5C" transform="translate(0,0)"/>
<path d="" fill="#FFFFFF" transform="translate(0,0)"/>
<path d="" fill="#626263" transform="translate(0,0)"/>
<path d="" fill="#5E5C5C" transform="translate(0,0)"/>
<path d="" fill="#FFFFFF" transform="translate(0,0)"/>
<path d="" fill="#5C5C5C" transform="translate(0,0)"/>
<path d="" fill="#5A5B5C" transform="translate(0,0)"/>
<path d="" fill="#FFFFFE" transform="translate(0,0)"/>
<path d="" fill="#FFFFFF" transform="translate(0,0)"/>
<path d="" fill="#FBFBFB" transform="translate(0,0)"/>
<path d="" fill="#FEFFFF" transform="translate(0,0)"/>
<path d="" fill="#FFFFFF" transform="translate(0,0)"/>
<path d="" fill="#FFFFFF" transform="translate(0,0)"/>
<path d="" fill="#FFFFFF" transform="translate(0,0)"/>
<path d="" fill="#FFFEFE" transform="translate(0,0)"/>
<path d="" fill="#FFFFFF" transform="translate(0,0)"/>
<path d="" fill="#FFFFFF" transform="translate(0,0)"/>
<path d="" fill="#FFFFFF" transform="translate(0,0)"/>
<path d="" fill="#FFFFFF" transform="translate(0,0)"/>
<path d="" fill="#FFFFFF" transform="translate(0,0)"/>
<path d="" fill="#FEFFFF" transform="translate(0,0)"/>
<path d="" fill="#FFFFFF" transform="translate(0,0)"/>
<path d="" fill="#FEFEFF" transform="translate(0,0)"/>
<path d="" fill="#FFFFFF" transform="translate(0,0)"/>
<path d="" fill="#FFFFFF" transform="translate(0,0)"/>
<path d="" fill="#FFFEFF" transform="translate(0,0)"/>
<path d="" fill="#FEFFFF" transform="translate(0,0)"/>
<path d="" fill="#FFFFFF" transform="translate(0,0)"/>
<path d="" fill="#FFFFFF" transform="translate(0,0)"/>
<path d="" fill="#FEFFFF" transform="translate(0,0)"/>
<path d="" fill="#FFFEFF" transform="translate(0,0)"/>
<path d="" fill="#FFFFFF" transform="translate(0,0)"/>
<path d="" fill="#FFFFFF" transform="translate(0,0)"/>
<path d="" fill="#FFFFFE" transform="translate(0,0)"/>
<path d="" fill="#FFFEFE" transform="translate(0,0)"/>
<path d="" fill="#FFFEFF" transform="translate(0,0)"/>
<path d="" fill="#FFFFFF" transform="translate(0,0)"/>
<path d="" fill="#FEFFFF" transform="translate(0,0)"/>
<path d="" fill="#FFFFFF" transform="translate(0,0)"/>
<path d="" fill="#5C595A" transform="translate(0,0)"/>
<path d="" fill="#FEFFFE" transform="translate(0,0)"/>
<path d="" fill="#636061" transform="translate(0,0)"/>
<path d="" fill="#5E5B5C" transform="translate(0,0)"/>
<path d="" fill="#585755" transform="translate(0,0)"/>
<path d="" fill="#5D5B5B" transform="translate(0,0)"/>
<path d="" fill="#5A5A58" transform="translate(0,0)"/>
<path d="" fill="#61615F" transform="translate(0,0)"/>
<path d="" fill="#585959" transform="translate(0,0)"/>
<path d="" fill="#5D5D5C" transform="translate(0,0)"/>
<path d="" fill="#5A5858" transform="translate(0,0)"/>
<path d="" fill="#575657" transform="translate(0,0)"/>
<path d="" fill="#595756" transform="translate(0,0)"/>
<path d="" fill="#636260" transform="translate(0,0)"/>
<path d="" fill="#575555" transform="translate(0,0)"/>
<path d="" fill="#5D5D5C" transform="translate(0,0)"/>
<path d="" fill="#626263" transform="translate(0,0)"/>
<path d="" fill="#575756" transform="translate(0,0)"/>
<path d="" fill="#FFFFFF" transform="translate(0,0)"/>
<path d="" fill="#565756" transform="translate(0,0)"/>
<path d="" fill="#585757" transform="translate(0,0)"/>
<path d="" fill="#5B5C5C" transform="translate(0,0)"/>
<path d="" fill="#5A5B59" transform="translate(0,0)"/>
<path d="" fill="#545355" transform="translate(0,0)"/>
<path d="" fill="#FEFFFF" transform="translate(0,0)"/>
<path d="" fill="#5B5A58" transform="translate(0,0)"/>
<path d="" fill="#5C5A59" transform="translate(0,0)"/>
<path d="" fill="#5D5F5C" transform="translate(0,0)"/>
<path d="" fill="#5E5C5D" transform="translate(0,0)"/>
<path d="" fill="#5D5F5F" transform="translate(0,0)"/>
<path d="" fill="#615E5E" transform="translate(0,0)"/>
<path d="" fill="#5D5D5B" transform="translate(0,0)"/>
<path d="" fill="#575656" transform="translate(0,0)"/>
<path d="" fill="#5B5D5D" transform="translate(0,0)"/>
<path d="" fill="#626161" transform="translate(0,0)"/>
<path d="" fill="#5B5956" transform="translate(0,0)"/>
<path d="" fill="#565653" transform="translate(0,0)"/>
<path d="" fill="#595654" transform="translate(0,0)"/>
<path d="" fill="#595954" transform="translate(0,0)"/>
<path d="" fill="#595856" transform="translate(0,0)"/>
<path d="" fill="#5A5956" transform="translate(0,0)"/>
<path d="" fill="#595854" transform="translate(0,0)"/>
<path d="" fill="#595756" transform="translate(0,0)"/>
<path d="" fill="#585755" transform="translate(0,0)"/>
<path d="" fill="#595654" transform="translate(0,0)"/>
<path d="" fill="#595956" transform="translate(0,0)"/>
<path d="" fill="#5A5958" transform="translate(0,0)"/>
<path d="" fill="#5A5955" transform="translate(0,0)"/>
<path d="" fill="#5A5756" transform="translate(0,0)"/>
<path d="" fill="#585755" transform="translate(0,0)"/>
<path d="" fill="#5A5756" transform="translate(0,0)"/>
<path d="" fill="#585857" transform="translate(0,0)"/>
<path d="" fill="#595956" transform="translate(0,0)"/>
<path d="" fill="#5B5854" transform="translate(0,0)"/>
<path d="" fill="#595756" transform="translate(0,0)"/>
<path d="" fill="#5A5857" transform="translate(0,0)"/>
<path d="" fill="#595857" transform="translate(0,0)"/>
<path d="" fill="#5A5758" transform="translate(0,0)"/>
<path d="" fill="#5A5855" transform="translate(0,0)"/>
<path d="" fill="#5A5757" transform="translate(0,0)"/>
<path d="" fill="#595753" transform="translate(0,0)"/>
<path d="" fill="#595758" transform="translate(0,0)"/>
<path d="" fill="#5A5955" transform="translate(0,0)"/>
<path d="" fill="#575855" transform="translate(0,0)"/>
<path d="" fill="#585754" transform="translate(0,0)"/>
<path d="" fill="#5A5958" transform="translate(0,0)"/>
<path d="" fill="#5C5956" transform="translate(0,0)"/>
<path d="" fill="#5D5B58" transform="translate(0,0)"/>
<path d="" fill="#595956" transform="translate(0,0)"/>
<path d="" fill="#5A5A57" transform="translate(0,0)"/>
<path d="" fill="#5A5A56" transform="translate(0,0)"/>
<path d="" fill="#5B5B57" transform="translate(0,0)"/>
<path d="" fill="#5A5A59" transform="translate(0,0)"/>
<path d="" fill="#5A5957" transform="translate(0,0)"/>
<path d="" fill="#5B5A58" transform="translate(0,0)"/>
<path d="" fill="#5A5957" transform="translate(0,0)"/>
<path d="" fill="#5B5958" transform="translate(0,0)"/>
<path d="" fill="#5A5856" transform="translate(0,0)"/>
<path d="" fill="#5A5854" transform="translate(0,0)"/>
<path d="" fill="#5B5A59" transform="translate(0,0)"/>
<path d="" fill="#5A5757" transform="translate(0,0)"/>
<path d="" fill="#595957" transform="translate(0,0)"/>
<path d="" fill="#595856" transform="translate(0,0)"/>
<path d="" fill="#5B5A5A" transform="translate(0,0)"/>
<path d="" fill="#5D5B58" transform="translate(0,0)"/>
<path d="" fill="#595858" transform="translate(0,0)"/>
<path d="" fill="#5C5A58" transform="translate(0,0)"/>
<path d="" fill="#595A57" transform="translate(0,0)"/>
<path d="" fill="#5A5C59" transform="translate(0,0)"/>
<path d="" fill="#666564" transform="translate(0,0)"/>
<path d="" fill="#AAABAB" transform="translate(0,0)"/>
<path d="" fill="#FFFFFF" transform="translate(0,0)"/>
<path d="" fill="#FFFFFF" transform="translate(0,0)"/>
<path d="" fill="#FFFEFE" transform="translate(0,0)"/>
<path d="" fill="#FFFEFF" transform="translate(0,0)"/>
<path d="" fill="#FFFFFF" transform="translate(0,0)"/>
<path d="" fill="#FFFEFF" transform="translate(0,0)"/>
<path d="" fill="#FEFDFE" transform="translate(0,0)"/>
<path d="" fill="#FEFEFF" transform="translate(0,0)"/>
<path d="" fill="#FFFFFF" transform="translate(0,0)"/>
<path d="" fill="#FDFEFE" transform="translate(0,0)"/>
<path d="" fill="#FFFFFF" transform="translate(0,0)"/>
<path d="" fill="#FFFEFF" transform="translate(0,0)"/>
<path d="" fill="#FFFEFF" transform="translate(0,0)"/>
<path d="" fill="#FFFFFF" transform="translate(0,0)"/>
<path d="" fill="#FFFFFF" transform="translate(0,0)"/>
<path d="" fill="#FFFFFF" transform="translate(0,0)"/>
<path d="" fill="#FFFFFF" transform="translate(0,0)"/>
<path d="" fill="#FFFFFF" transform="translate(0,0)"/>
<path d="" fill="#FFFFFF" transform="translate(0,0)"/>
<path d="" fill="#FEFFFF" transform="translate(0,0)"/>
<path d="" fill="#FFFFFF" transform="translate(0,0)"/>
<path d="" fill="#FFFFFF" transform="translate(0,0)"/>
<path d="" fill="#FEFFFF" transform="translate(0,0)"/>
<path d="" fill="#FFFFFF" transform="translate(0,0)"/>
<path d="" fill="#FFFFFF" transform="translate(0,0)"/>
<path d="" fill="#FFFFFF" transform="translate(0,0)"/>
<path d="" fill="#FFFFFF" transform="translate(0,0)"/>
<path d="" fill="#FFFFFF" transform="translate(0,0)"/>
<path d="" fill="#FFFFFF" transform="translate(0,0)"/>
<path d="" fill="#FFFFFF" transform="translate(0,0)"/>
<path d="" fill="#FFFFFE" transform="translate(0,0)"/>
<path d="" fill="#FEFFFF" transform="translate(0,0)"/>
<path d="" fill="#FFFFFF" transform="translate(0,0)"/>
<path d="" fill="#FFFEFE" transform="translate(0,0)"/>
</svg>
